<?xml version="1.0" standalone="no"?>
<svg version="1.1" id="downloadSvg" xmlns="http://www.w3.org/2000/svg" xmlns:xlink="http://www.w3.org/1999/xlink" x="0px" y="0px" viewBox="0 0 1200 1200" enable-background="new 0 0 1200 1200" xml:space="preserve" height="512" width="512">
<g>
	<path fill="#FAF5F7" d="M576.377,598.7c10.899-9.643,27.438-9.774,38.482-0.295l54.244,46.564V520.221H530.896v118.746&#10;&#9;&#9;L576.377,598.7z"/>
	<polygon fill="#F8DAC9" points="595.619,216.983 502.2,494.673 689.038,494.673 &#9;"/>
	<path fill="#F23F5D" d="M583.646,879.173c-5.237-8.362-23.047-33.012-50.683-33.012c-3.495,0-7.146,0.395-10.949,1.268&#10;&#9;&#9;c-15.747,3.601-33.459,20.92-36.844,47.046c-2.905,22.405,2.258,80.287,110.532,138.678&#10;&#9;&#9;c107.046-57.712,113.005-114.734,110.501-136.798c-3.011-26.559-20.999-44.764-37.212-49.026&#10;&#9;&#9;c-33.765-8.861-55.326,21.91-61.116,31.561c-2.574,4.287-7.086,6.878-12.071,6.932C590.87,885.831,586.292,883.386,583.646,879.173&#10;&#9;&#9;z"/>
	<path fill="#FAF5F7" d="M593.309,617.832L396.83,791.786v332.666h198.791H803.17V793.724L598.218,617.79&#10;&#9;&#9;C596.813,616.576,594.704,616.601,593.309,617.832z M675.487,822.621c29.17,7.664,52.244,36.8,56.103,70.857&#10;&#9;&#9;c3.892,34.318-7.697,101.378-129.024,164.958c-2.162,1.123-4.522,1.684-6.876,1.684c-2.352,0-4.695-0.557-6.832-1.672l-0.021-0.012&#10;&#9;&#9;c-127.346-66.74-132.64-139.189-129.005-167.245c4.385-33.823,27.611-62.062,56.481-68.669&#10;&#9;&#9;c33.214-7.585,61.064,8.649,79.167,29.748C613.549,830.339,641.643,813.718,675.487,822.621z"/>
	<path fill="#18273D" d="M694.652,666.9V519.766c5.974-1.103,11.336-4.319,15.124-9.259c4.736-6.173,6.291-14.024,4.275-21.536&#10;&#9;&#9;l-94.355-280.553c-1.833-6.381-5.948-11.463-11.302-14.615v-68.327h32.821c7.057,0,12.774-5.72,12.774-12.774&#10;&#9;&#9;s-5.718-12.774-12.774-12.774h-32.821V62.774c0-7.054-5.72-12.774-12.774-12.774c-7.054,0-12.774,5.72-12.774,12.774v37.154&#10;&#9;&#9;h-32.821c-7.055,0-12.774,5.72-12.774,12.774s5.72,12.774,12.774,12.774h32.821v68.329c-5.352,3.152-9.465,8.233-11.298,14.611&#10;&#9;&#9;l-94.128,279.796l-0.231,0.763c-2.017,7.512-0.457,15.361,4.277,21.533c4.734,6.171,11.911,9.712,19.689,9.712h4.194v141.365&#10;&#9;&#9;l-197.344,174.72c-5.281,4.678-5.772,12.749-1.096,18.03c4.676,5.285,12.751,5.776,18.032,1.098l46.342-41.029v313.531&#10;&#9;&#9;c0,12.167,9.899,22.064,22.064,22.064h202.276h211.033c12.167,0,22.064-9.897,22.064-22.064V815.656l46.489,39.907&#10;&#9;&#9;c2.412,2.067,5.368,3.081,8.316,3.081c3.597,0,7.169-1.509,9.697-4.453c4.595-5.352,3.979-13.419-1.372-18.013L694.652,666.9z&#10;&#9;&#9; M502.2,494.673l93.419-277.69l93.419,277.69H502.2z M669.104,520.221v124.748l-54.244-46.564&#10;&#9;&#9;c-11.044-9.479-27.584-9.348-38.482,0.295l-45.481,40.267V520.221H669.104z M803.17,1124.452H595.621H396.83V791.786&#10;&#9;&#9;l196.479-173.954c1.395-1.231,3.503-1.256,4.909-0.042L803.17,793.724V1124.452z" style="fill: rgb(255, 255, 255);"/>
	<path fill="#18273D" d="M516.313,822.521c-28.871,6.607-52.097,34.846-56.481,68.669c-3.634,28.056,1.659,100.505,129.005,167.245&#10;&#9;&#9;l0.021,0.012c2.137,1.114,4.481,1.672,6.832,1.672c2.354,0,4.713-0.561,6.876-1.684c121.327-63.58,132.916-130.64,129.024-164.958&#10;&#9;&#9;c-3.859-34.056-26.933-63.193-56.103-70.857c-33.844-8.903-61.937,7.718-80.007,29.648&#10;&#9;&#9;C577.377,831.171,549.527,814.937,516.313,822.521z M607.876,878.891c5.79-9.651,27.351-40.422,61.116-31.561&#10;&#9;&#9;c16.213,4.262,34.202,22.467,37.212,49.026c2.503,22.064-3.456,79.086-110.501,136.798&#10;&#9;&#9;C487.428,974.763,482.265,916.88,485.17,894.476c3.385-26.126,21.097-43.445,36.844-47.046c3.803-0.873,7.454-1.268,10.949-1.268&#10;&#9;&#9;c27.636,0,45.445,24.65,50.683,33.012c2.647,4.212,7.225,6.657,12.159,6.649C600.79,885.768,605.302,883.178,607.876,878.891z" style="fill: rgb(255, 255, 255);"/>
</g>
</svg>